<svg xmlns="http://www.w3.org/2000/svg" width="256" height="256" viewBox="0 0 256 256">
  <rect width="256" height="256" rx="16" fill="#0f1729"/>

  <!-- root bounding box -->
  <rect x="20" y="20" width="216" height="216" rx="4" fill="none" stroke="#3b82f6" stroke-width="1" opacity="0.2"/>

  <!-- internal node bounding boxes - level 1 -->
  <rect x="28" y="28" width="100" height="120" rx="3" fill="none" stroke="#3b82f6" stroke-width="1.2" opacity="0.3"/>
  <rect x="128" y="28" width="100" height="80" rx="3" fill="none" stroke="#3b82f6" stroke-width="1.2" opacity="0.3"/>
  <rect x="38" y="148" width="190" height="80" rx="3" fill="none" stroke="#3b82f6" stroke-width="1.2" opacity="0.3"/>

  <!-- leaf bounding boxes -->
  <rect x="34" y="34" width="44" height="50" rx="2" fill="none" stroke="#60a5fa" stroke-width="1" opacity="0.4"/>
  <rect x="78" y="60" width="44" height="82" rx="2" fill="none" stroke="#60a5fa" stroke-width="1" opacity="0.4"/>
  <rect x="134" y="34" width="50" height="36" rx="2" fill="none" stroke="#60a5fa" stroke-width="1" opacity="0.4"/>
  <rect x="172" y="48" width="50" height="54" rx="2" fill="none" stroke="#60a5fa" stroke-width="1" opacity="0.4"/>
  <rect x="44" y="154" width="70" height="68" rx="2" fill="none" stroke="#60a5fa" stroke-width="1" opacity="0.4"/>
  <rect x="134" y="158" width="88" height="64" rx="2" fill="none" stroke="#60a5fa" stroke-width="1" opacity="0.4"/>

  <!-- data points -->
  <circle cx="48" cy="52" r="3.5" fill="#60a5fa"/>
  <circle cx="64" cy="72" r="3.5" fill="#60a5fa"/>
  <circle cx="42" cy="68" r="3.5" fill="#60a5fa"/>
  <circle cx="92" cy="80" r="3.5" fill="#60a5fa"/>
  <circle cx="108" cy="120" r="3.5" fill="#60a5fa"/>
  <circle cx="86" cy="104" r="3.5" fill="#60a5fa"/>
  <circle cx="148" cy="48" r="3.5" fill="#60a5fa"/>
  <circle cx="168" cy="58" r="3.5" fill="#60a5fa"/>
  <circle cx="192" cy="68" r="3.5" fill="#60a5fa"/>
  <circle cx="204" cy="88" r="3.5" fill="#60a5fa"/>
  <circle cx="184" cy="80" r="3.5" fill="#60a5fa"/>
  <circle cx="60" cy="172" r="3.5" fill="#60a5fa"/>
  <circle cx="80" cy="192" r="3.5" fill="#60a5fa"/>
  <circle cx="96" cy="176" r="3.5" fill="#60a5fa"/>
  <circle cx="152" cy="180" r="3.5" fill="#60a5fa"/>
  <circle cx="176" cy="196" r="3.5" fill="#60a5fa"/>
  <circle cx="200" cy="172" r="3.5" fill="#60a5fa"/>
  <circle cx="208" cy="204" r="3.5" fill="#60a5fa"/>

  <!-- query region with amber highlight -->
  <rect x="140" y="160" width="80" height="56" rx="3" fill="none" stroke="#f59e0b" stroke-width="2" stroke-dasharray="6 3" opacity="0.8"/>

  <!-- highlighted points inside query -->
  <circle cx="152" cy="180" r="4" fill="#f59e0b" opacity="0.9"/>
  <circle cx="176" cy="196" r="4" fill="#f59e0b" opacity="0.9"/>
  <circle cx="200" cy="172" r="4" fill="#f59e0b" opacity="0.9"/>
  <circle cx="208" cy="204" r="4" fill="#f59e0b" opacity="0.9"/>
</svg>
